ISO-10303-21;
HEADER;
FILE_DESCRIPTION(('FreeCAD Model'),'2;1');
FILE_NAME('Open CASCADE Shape Model','2026-03-24T09:33:52',('Author'),(
    ''),'Open CASCADE STEP processor 7.7','FreeCAD','Unknown');
FILE_SCHEMA(('AUTOMOTIVE_DESIGN { 1 0 10303 214 1 1 1 1 }'));
ENDSEC;
DATA;
#1 = APPLICATION_PROTOCOL_DEFINITION('international standard',
  'automotive_design',2000,#2);
#2 = APPLICATION_CONTEXT(
  'core data for automotive mechanical design processes');
#3 = SHAPE_DEFINITION_REPRESENTATION(#4,#10);
#4 = PRODUCT_DEFINITION_SHAPE('','',#5);
#5 = PRODUCT_DEFINITION('design','',#6,#9);
#6 = PRODUCT_DEFINITION_FORMATION('','',#7);
#7 = PRODUCT('Common','Common','',(#8));
#8 = PRODUCT_CONTEXT('',#2,'mechanical');
#9 = PRODUCT_DEFINITION_CONTEXT('part definition',#2,'design');
#10 = ADVANCED_BREP_SHAPE_REPRESENTATION('',(#11,#15),#577);
#11 = AXIS2_PLACEMENT_3D('',#12,#13,#14);
#12 = CARTESIAN_POINT('',(0.,0.,0.));
#13 = DIRECTION('',(0.,0.,1.));
#14 = DIRECTION('',(1.,0.,-0.));
#15 = MANIFOLD_SOLID_BREP('',#16);
#16 = CLOSED_SHELL('',(#17,#300,#557,#567));
#17 = ADVANCED_FACE('',(#18),#250,.T.);
#18 = FACE_BOUND('',#19,.T.);
#19 = EDGE_LOOP('',(#20,#34,#137,#149));
#20 = ORIENTED_EDGE('',*,*,#21,.F.);
#21 = EDGE_CURVE('',#22,#24,#26,.T.);
#22 = VERTEX_POINT('',#23);
#23 = CARTESIAN_POINT('',(-73.83088784512,200.,15.));
#24 = VERTEX_POINT('',#25);
#25 = CARTESIAN_POINT('',(73.830887845129,200.,15.));
#26 = ( BOUNDED_CURVE() B_SPLINE_CURVE(3,(#27,#28,#29,#30,#31,#32,#33),
.UNSPECIFIED.,.F.,.F.) B_SPLINE_CURVE_WITH_KNOTS((4,3,4),(0.,0.5,1.),
.PIECEWISE_BEZIER_KNOTS.) CURVE() GEOMETRIC_REPRESENTATION_ITEM() 
RATIONAL_B_SPLINE_CURVE((1.,0.610683431446,0.610683431446,1.,
0.610683431446,0.610683431446,1.)) REPRESENTATION_ITEM('') );
#27 = CARTESIAN_POINT('',(-98.36157786453,8.,15.));
#28 = CARTESIAN_POINT('',(-182.7424646855,105.64514316856,15.));
#29 = CARTESIAN_POINT('',(-129.0531210204,223.,15.));
#30 = CARTESIAN_POINT('',(8.326672684689E-14,223.,15.));
#31 = CARTESIAN_POINT('',(129.05312102045,223.,15.));
#32 = CARTESIAN_POINT('',(182.74246468559,105.64514316856,15.));
#33 = CARTESIAN_POINT('',(98.36157786453,8.,15.));
#34 = ORIENTED_EDGE('',*,*,#35,.F.);
#35 = EDGE_CURVE('',#36,#22,#38,.T.);
#36 = VERTEX_POINT('',#37);
#37 = CARTESIAN_POINT('',(-73.83088784513,200.,-15.));
#38 = B_SPLINE_CURVE_WITH_KNOTS('',7,(#39,#40,#41,#42,#43,#44,#45,#46,
    #47,#48,#49,#50,#51,#52,#53,#54,#55,#56,#57,#58,#59,#60,#61,#62,#63,
    #64,#65,#66,#67,#68,#69,#70,#71,#72,#73,#74,#75,#76,#77,#78,#79,#80,
    #81,#82,#83,#84,#85,#86,#87,#88,#89,#90,#91,#92,#93,#94,#95,#96,#97,
    #98,#99,#100,#101,#102,#103,#104,#105,#106,#107,#108,#109,#110,#111,
    #112,#113,#114,#115,#116,#117,#118,#119,#120,#121,#122,#123,#124,
    #125,#126,#127,#128,#129,#130,#131,#132,#133,#134,#135,#136),
  .UNSPECIFIED.,.F.,.F.,(8,6,6,6,6,6,6,6,6,6,6,6,6,6,6,6,8),(0.,
    0.140967940012,0.23875981522,0.274726577738,0.320681159429,
    0.379511506957,0.424885982409,0.449417443112,0.50000247492,
    0.550184290748,0.574709323107,0.62121719329,0.680049515847,
    0.725990898136,0.76193799043,0.859640183671,1.),.UNSPECIFIED.);
#39 = CARTESIAN_POINT('',(-73.83088784512,200.,-15.));
#40 = CARTESIAN_POINT('',(-72.72747603908,200.,-15.));
#41 = CARTESIAN_POINT('',(-71.62429226416,200.,-14.93423044696));
#42 = CARTESIAN_POINT('',(-70.52565385611,200.,-14.80553560484));
#43 = CARTESIAN_POINT('',(-69.43553851917,200.,-14.61653321919));
#44 = CARTESIAN_POINT('',(-68.35760501783,200.,-14.36954532011));
#45 = CARTESIAN_POINT('',(-67.29521775709,200.,-14.06645805255));
#46 = CARTESIAN_POINT('',(-65.5275073038,200.,-13.4598536312));
#47 = CARTESIAN_POINT('',(-64.8126228316,200.,-13.18494809166));
#48 = CARTESIAN_POINT('',(-64.10794356628,200.,-12.88396334782));
#49 = CARTESIAN_POINT('',(-63.41469092267,200.,-12.557143555));
#50 = CARTESIAN_POINT('',(-62.73423555104,200.,-12.2046185852));
#51 = CARTESIAN_POINT('',(-62.06811450016,200.,-11.82637064469));
#52 = CARTESIAN_POINT('',(-61.17899300134,200.,-11.27348796586));
#53 = CARTESIAN_POINT('',(-60.94209677026,200.,-11.12131340915));
#54 = CARTESIAN_POINT('',(-60.70747288686,200.,-10.96562116993));
#55 = CARTESIAN_POINT('',(-60.47521863451,200.,-10.80639981422));
#56 = CARTESIAN_POINT('',(-60.24543855598,200.,-10.64363588675));
#57 = CARTESIAN_POINT('',(-60.01824445344,200.,-10.477313911));
#58 = CARTESIAN_POINT('',(-59.50692665128,200.,-10.09033903768));
#59 = CARTESIAN_POINT('',(-59.2245180239,200.,-9.867427417001));
#60 = CARTESIAN_POINT('',(-58.94677524862,200.,-9.63864233396));
#61 = CARTESIAN_POINT('',(-58.6739734173,200.,-9.403944871404));
#62 = CARTESIAN_POINT('',(-58.40641697131,200.,-9.16329638813));
#63 = CARTESIAN_POINT('',(-58.14443970161,200.,-8.916658518893));
#64 = CARTESIAN_POINT('',(-57.56063274638,200.,-8.340534892834));
#65 = CARTESIAN_POINT('',(-57.24261694076,200.,-8.007215481356));
#66 = CARTESIAN_POINT('',(-56.93510569125,200.,-7.663944197184));
#67 = CARTESIAN_POINT('',(-56.63897277769,200.,-7.3106720237));
#68 = CARTESIAN_POINT('',(-56.35520726971,200.,-6.947400275001));
#69 = CARTESIAN_POINT('',(-56.08489915943,200.,-6.574192484563));
#70 = CARTESIAN_POINT('',(-55.63202196725,200.,-5.895788365742));
#71 = CARTESIAN_POINT('',(-55.443534545,200.,-5.594573380172));
#72 = CARTESIAN_POINT('',(-55.26430226033,200.,-5.287621093069));
#73 = CARTESIAN_POINT('',(-55.09490885986,200.,-4.975057564967));
#74 = CARTESIAN_POINT('',(-54.93596593174,200.,-4.6570649893));
#75 = CARTESIAN_POINT('',(-54.78809511212,200.,-4.333891175841));
#76 = CARTESIAN_POINT('',(-54.57827400017,200.,-3.828514788616));
#77 = CARTESIAN_POINT('',(-54.50805797613,200.,-3.649749544478));
#78 = CARTESIAN_POINT('',(-54.44135310564,200.,-3.469619204153));
#79 = CARTESIAN_POINT('',(-54.37825464296,200.,-3.288183304601));
#80 = CARTESIAN_POINT('',(-54.31885516386,200.,-3.105508432101));
#81 = CARTESIAN_POINT('',(-54.26324317689,200.,-2.921668697689));
#82 = CARTESIAN_POINT('',(-54.10480843462,200.,-2.355427305246));
#83 = CARTESIAN_POINT('',(-54.0145613205,200.,-1.969462128917));
#84 = CARTESIAN_POINT('',(-53.94150970132,200.,-1.579628309524));
#85 = CARTESIAN_POINT('',(-53.8862694883,200.,-1.186777994588));
#86 = CARTESIAN_POINT('',(-53.84928651661,200.,-0.791842600621));
#87 = CARTESIAN_POINT('',(-53.83079986711,200.,-0.395837560514));
#88 = CARTESIAN_POINT('',(-53.83081046648,200.,0.392947116816));
#89 = CARTESIAN_POINT('',(-53.84901407271,200.,0.785794172482));
#90 = CARTESIAN_POINT('',(-53.88542011596,200.,1.177596986031));
#91 = CARTESIAN_POINT('',(-53.9397970963,200.,1.567363814663));
#92 = CARTESIAN_POINT('',(-54.01171297381,200.,1.95418380199));
#93 = CARTESIAN_POINT('',(-54.10057023788,200.,2.337222497208));
#94 = CARTESIAN_POINT('',(-54.25699151504,200.,2.900696712985));
#95 = CARTESIAN_POINT('',(-54.31221728796,200.,3.08460051859));
#96 = CARTESIAN_POINT('',(-54.37123568118,200.,3.267346260183));
#97 = CARTESIAN_POINT('',(-54.4339585504,200.,3.448859400823));
#98 = CARTESIAN_POINT('',(-54.50029361176,200.,3.629072924505));
#99 = CARTESIAN_POINT('',(-54.5701458323,200.,3.807926863141));
#100 = CARTESIAN_POINT('',(-54.78236952931,200.,4.321856723161));
#101 = CARTESIAN_POINT('',(-54.93361979088,200.,4.653259783169));
#102 = CARTESIAN_POINT('',(-55.09651525774,200.,4.979223382706));
#103 = CARTESIAN_POINT('',(-55.27038609497,200.,5.299480237022));
#104 = CARTESIAN_POINT('',(-55.45457355565,200.,5.613835312335));
#105 = CARTESIAN_POINT('',(-55.64845002319,200.,5.922155133604));
#106 = CARTESIAN_POINT('',(-56.10820479844,200.,6.606649389336));
#107 = CARTESIAN_POINT('',(-56.37953437983,200.,6.979131620842));
#108 = CARTESIAN_POINT('',(-56.66425271122,200.,7.341673018157));
#109 = CARTESIAN_POINT('',(-56.9612766447,200.,7.69421290202));
#110 = CARTESIAN_POINT('',(-57.26962252299,200.,8.03675257671));
#111 = CARTESIAN_POINT('',(-57.58842026445,200.,8.369343831281));
#112 = CARTESIAN_POINT('',(-58.17345436124,200.,8.94409584642));
#113 = CARTESIAN_POINT('',(-58.43589102187,200.,9.190092918927));
#114 = CARTESIAN_POINT('',(-58.703876832,200.,9.430107049038));
#115 = CARTESIAN_POINT('',(-58.9770803224,200.,9.664176745807));
#116 = CARTESIAN_POINT('',(-59.25519915251,200.,9.892340636599));
#117 = CARTESIAN_POINT('',(-59.53796011039,200.,10.114637467091));
#118 = CARTESIAN_POINT('',(-60.04980828509,200.,10.500483198442));
#119 = CARTESIAN_POINT('',(-60.27718759091,200.,10.666290351419));
#120 = CARTESIAN_POINT('',(-60.50713885387,200.,10.828544906961));
#121 = CARTESIAN_POINT('',(-60.73955108346,200.,10.98726217533));
#122 = CARTESIAN_POINT('',(-60.9743204751,200.,11.142455430295));
#123 = CARTESIAN_POINT('',(-61.21135041008,200.,11.294135909135));
#124 = CARTESIAN_POINT('',(-62.10068656476,200.,11.845049377278));
#125 = CARTESIAN_POINT('',(-62.76680549968,200.,12.22187181518));
#126 = CARTESIAN_POINT('',(-63.44717774704,200.,12.573020502237));
#127 = CARTESIAN_POINT('',(-64.14027666568,200.,12.898509277309));
#128 = CARTESIAN_POINT('',(-64.84473963814,200.,13.198204806463));
#129 = CARTESIAN_POINT('',(-65.55935108578,200.,13.471859753211));
#130 = CARTESIAN_POINT('',(-67.32271809618,200.,14.074286880582));
#131 = CARTESIAN_POINT('',(-68.38085491996,200.,14.374861119786));
#132 = CARTESIAN_POINT('',(-69.45434597112,200.,14.619786918942));
#133 = CARTESIAN_POINT('',(-70.53986858198,200.,14.807197232089));
#134 = CARTESIAN_POINT('',(-71.63380873225,200.,14.934796766628));
#135 = CARTESIAN_POINT('',(-72.73223690959,200.,15.));
#136 = CARTESIAN_POINT('',(-73.83088784512,200.,15.));
#137 = ORIENTED_EDGE('',*,*,#138,.T.);
#138 = EDGE_CURVE('',#36,#139,#141,.T.);
#139 = VERTEX_POINT('',#140);
#140 = CARTESIAN_POINT('',(73.830887845129,200.,-15.));
#141 = ( BOUNDED_CURVE() B_SPLINE_CURVE(3,(#142,#143,#144,#145,#146,#147
,#148),.UNSPECIFIED.,.F.,.F.) B_SPLINE_CURVE_WITH_KNOTS((4,3,4),(0.,0.5,
1.),.PIECEWISE_BEZIER_KNOTS.) CURVE() GEOMETRIC_REPRESENTATION_ITEM() 
RATIONAL_B_SPLINE_CURVE((1.,0.610683431446,0.610683431446,1.,
0.610683431446,0.610683431446,1.)) REPRESENTATION_ITEM('') );
#142 = CARTESIAN_POINT('',(-98.3615778644,8.000000000105,-15.));
#143 = CARTESIAN_POINT('',(-182.7424646855,105.64514316856,-15.));
#144 = CARTESIAN_POINT('',(-129.0531210204,223.,-15.));
#145 = CARTESIAN_POINT('',(8.326672684689E-14,223.,-15.));
#146 = CARTESIAN_POINT('',(129.05312102045,223.,-15.));
#147 = CARTESIAN_POINT('',(182.74246468559,105.64514316856,-15.));
#148 = CARTESIAN_POINT('',(98.36157786453,8.,-15.));
#149 = ORIENTED_EDGE('',*,*,#150,.T.);
#150 = EDGE_CURVE('',#139,#24,#151,.T.);
#151 = B_SPLINE_CURVE_WITH_KNOTS('',7,(#152,#153,#154,#155,#156,#157,
    #158,#159,#160,#161,#162,#163,#164,#165,#166,#167,#168,#169,#170,
    #171,#172,#173,#174,#175,#176,#177,#178,#179,#180,#181,#182,#183,
    #184,#185,#186,#187,#188,#189,#190,#191,#192,#193,#194,#195,#196,
    #197,#198,#199,#200,#201,#202,#203,#204,#205,#206,#207,#208,#209,
    #210,#211,#212,#213,#214,#215,#216,#217,#218,#219,#220,#221,#222,
    #223,#224,#225,#226,#227,#228,#229,#230,#231,#232,#233,#234,#235,
    #236,#237,#238,#239,#240,#241,#242,#243,#244,#245,#246,#247,#248,
    #249),.UNSPECIFIED.,.F.,.F.,(8,6,6,6,6,6,6,6,6,6,6,6,6,6,6,6,8),(0.,
    0.140967940011,0.238759815219,0.274726577737,0.320681159429,
    0.379511506956,0.424885982408,0.449417443111,0.500002474919,
    0.550184290745,0.574709323104,0.621217193288,0.680049515845,
    0.725990898134,0.761937990428,0.859640183669,1.),.UNSPECIFIED.);
#152 = CARTESIAN_POINT('',(73.830887845129,200.,-15.));
#153 = CARTESIAN_POINT('',(72.727476039081,200.,-15.));
#154 = CARTESIAN_POINT('',(71.624292264156,200.,-14.93423044696));
#155 = CARTESIAN_POINT('',(70.52565385612,200.,-14.80553560485));
#156 = CARTESIAN_POINT('',(69.435538519162,200.,-14.61653321919));
#157 = CARTESIAN_POINT('',(68.357605017847,200.,-14.36954532011));
#158 = CARTESIAN_POINT('',(67.295217757091,200.,-14.06645805254));
#159 = CARTESIAN_POINT('',(65.527507303808,200.,-13.4598536312));
#160 = CARTESIAN_POINT('',(64.812622831605,200.,-13.18494809166));
#161 = CARTESIAN_POINT('',(64.107943566283,200.,-12.88396334782));
#162 = CARTESIAN_POINT('',(63.414690922671,200.,-12.557143555));
#163 = CARTESIAN_POINT('',(62.734235551044,200.,-12.2046185852));
#164 = CARTESIAN_POINT('',(62.068114500169,200.,-11.82637064469));
#165 = CARTESIAN_POINT('',(61.17899300134,200.,-11.27348796586));
#166 = CARTESIAN_POINT('',(60.942096770265,200.,-11.12131340915));
#167 = CARTESIAN_POINT('',(60.707472886868,200.,-10.96562116993));
#168 = CARTESIAN_POINT('',(60.475218634516,200.,-10.80639981422));
#169 = CARTESIAN_POINT('',(60.245438555982,200.,-10.64363588675));
#170 = CARTESIAN_POINT('',(60.018244453445,200.,-10.477313911));
#171 = CARTESIAN_POINT('',(59.506926651284,200.,-10.09033903768));
#172 = CARTESIAN_POINT('',(59.224518023903,200.,-9.867427417001));
#173 = CARTESIAN_POINT('',(58.946775248629,200.,-9.63864233396));
#174 = CARTESIAN_POINT('',(58.6739734173,200.,-9.403944871404));
#175 = CARTESIAN_POINT('',(58.406416971312,200.,-9.16329638813));
#176 = CARTESIAN_POINT('',(58.144439701617,200.,-8.916658518892));
#177 = CARTESIAN_POINT('',(57.560632746383,200.,-8.340534892834));
#178 = CARTESIAN_POINT('',(57.242616940763,200.,-8.007215481357));
#179 = CARTESIAN_POINT('',(56.935105691255,200.,-7.663944197184));
#180 = CARTESIAN_POINT('',(56.638972777696,200.,-7.3106720237));
#181 = CARTESIAN_POINT('',(56.355207269713,200.,-6.947400275001));
#182 = CARTESIAN_POINT('',(56.084899159435,200.,-6.574192484563));
#183 = CARTESIAN_POINT('',(55.632021967255,200.,-5.895788365742));
#184 = CARTESIAN_POINT('',(55.443534545008,200.,-5.594573380172));
#185 = CARTESIAN_POINT('',(55.26430226033,200.,-5.287621093069));
#186 = CARTESIAN_POINT('',(55.09490885986,200.,-4.975057564967));
#187 = CARTESIAN_POINT('',(54.935965931749,200.,-4.6570649893));
#188 = CARTESIAN_POINT('',(54.788095112123,200.,-4.333891175841));
#189 = CARTESIAN_POINT('',(54.578274000171,200.,-3.828514788615));
#190 = CARTESIAN_POINT('',(54.508057976136,200.,-3.649749544478));
#191 = CARTESIAN_POINT('',(54.441353105644,200.,-3.469619204153));
#192 = CARTESIAN_POINT('',(54.378254642968,200.,-3.288183304601));
#193 = CARTESIAN_POINT('',(54.318855163865,200.,-3.105508432101));
#194 = CARTESIAN_POINT('',(54.263243176891,200.,-2.92166869769));
#195 = CARTESIAN_POINT('',(54.104808434628,200.,-2.355427305246));
#196 = CARTESIAN_POINT('',(54.014561320505,200.,-1.969462128917));
#197 = CARTESIAN_POINT('',(53.941509701322,200.,-1.579628309524));
#198 = CARTESIAN_POINT('',(53.886269488301,200.,-1.186777994588));
#199 = CARTESIAN_POINT('',(53.849286516618,200.,-0.791842600621));
#200 = CARTESIAN_POINT('',(53.830799867114,200.,-0.395837560514));
#201 = CARTESIAN_POINT('',(53.830810466488,200.,0.392947116806));
#202 = CARTESIAN_POINT('',(53.84901407271,200.,0.785794172462));
#203 = CARTESIAN_POINT('',(53.885420115966,200.,1.177596986001));
#204 = CARTESIAN_POINT('',(53.939797096302,200.,1.567363814623));
#205 = CARTESIAN_POINT('',(54.011712973802,200.,1.954183801941));
#206 = CARTESIAN_POINT('',(54.100570237871,200.,2.33722249715));
#207 = CARTESIAN_POINT('',(54.256991515021,200.,2.900696712918));
#208 = CARTESIAN_POINT('',(54.312217287947,200.,3.084600518524));
#209 = CARTESIAN_POINT('',(54.371235681162,200.,3.267346260117));
#210 = CARTESIAN_POINT('',(54.433958550385,200.,3.448859400757));
#211 = CARTESIAN_POINT('',(54.500293611736,200.,3.629072924438));
#212 = CARTESIAN_POINT('',(54.570145832281,200.,3.807926863076));
#213 = CARTESIAN_POINT('',(54.782369529288,200.,4.321856723097));
#214 = CARTESIAN_POINT('',(54.933619790855,200.,4.653259783104));
#215 = CARTESIAN_POINT('',(55.09651525771,200.,4.979223382643));
#216 = CARTESIAN_POINT('',(55.270386094939,200.,5.29948023696));
#217 = CARTESIAN_POINT('',(55.454573555621,200.,5.613835312272));
#218 = CARTESIAN_POINT('',(55.648450023158,200.,5.922155133544));
#219 = CARTESIAN_POINT('',(56.108204798405,200.,6.606649389278));
#220 = CARTESIAN_POINT('',(56.37953437979,200.,6.979131620785));
#221 = CARTESIAN_POINT('',(56.664252711178,200.,7.341673018101));
#222 = CARTESIAN_POINT('',(56.961276644655,200.,7.694212901965));
#223 = CARTESIAN_POINT('',(57.269622522947,200.,8.036752576657));
#224 = CARTESIAN_POINT('',(57.588420264399,200.,8.369343831228));
#225 = CARTESIAN_POINT('',(58.173454361194,200.,8.94409584637));
#226 = CARTESIAN_POINT('',(58.435891021818,200.,9.190092918879));
#227 = CARTESIAN_POINT('',(58.703876831946,200.,9.430107048991));
#228 = CARTESIAN_POINT('',(58.977080322351,200.,9.664176745761));
#229 = CARTESIAN_POINT('',(59.255199152455,200.,9.892340636553));
#230 = CARTESIAN_POINT('',(59.537960110333,200.,10.114637467047));
#231 = CARTESIAN_POINT('',(60.049808285035,200.,10.5004831984));
#232 = CARTESIAN_POINT('',(60.27718759086,200.,10.666290351378));
#233 = CARTESIAN_POINT('',(60.507138853813,200.,10.828544906921));
#234 = CARTESIAN_POINT('',(60.739551083406,200.,10.987262175291));
#235 = CARTESIAN_POINT('',(60.974320475045,200.,11.142455430257));
#236 = CARTESIAN_POINT('',(61.211350410029,200.,11.294135909097));
#237 = CARTESIAN_POINT('',(62.100686564702,200.,11.845049377244));
#238 = CARTESIAN_POINT('',(62.76680549962,200.,12.221871815149));
#239 = CARTESIAN_POINT('',(63.447177746984,200.,12.573020502208));
#240 = CARTESIAN_POINT('',(64.140276665625,200.,12.898509277282));
#241 = CARTESIAN_POINT('',(64.844739638091,200.,13.198204806438));
#242 = CARTESIAN_POINT('',(65.559351085727,200.,13.471859753189));
#243 = CARTESIAN_POINT('',(67.32271809614,200.,14.074286880568));
#244 = CARTESIAN_POINT('',(68.380854919921,200.,14.374861119776));
#245 = CARTESIAN_POINT('',(69.454345971085,200.,14.619786918938));
#246 = CARTESIAN_POINT('',(70.539868581969,200.,14.807197232085));
#247 = CARTESIAN_POINT('',(71.633808732233,200.,14.934796766627));
#248 = CARTESIAN_POINT('',(72.732236909583,200.,15.));
#249 = CARTESIAN_POINT('',(73.830887845129,200.,15.));
#250 = ( BOUNDED_SURFACE() B_SPLINE_SURFACE(3,3,(
    (#251,#252,#253,#254,#255,#256,#257)
    ,(#258,#259,#260,#261,#262,#263,#264)
    ,(#265,#266,#267,#268,#269,#270,#271)
    ,(#272,#273,#274,#275,#276,#277,#278)
    ,(#279,#280,#281,#282,#283,#284,#285)
    ,(#286,#287,#288,#289,#290,#291,#292)
    ,(#293,#294,#295,#296,#297,#298,#299
)),.UNSPECIFIED.,.T.,.F.,.F.) B_SPLINE_SURFACE_WITH_KNOTS((1,3,3,3,1),(4
    ,3,4),(-0.5,0.,0.5,1.,1.5),(0.,0.5,1.),.UNSPECIFIED.) 
GEOMETRIC_REPRESENTATION_ITEM() RATIONAL_B_SPLINE_SURFACE((
    (1.,0.610683431446,0.610683431446,1.,0.610683431446,0.610683431446
      ,1.)
    ,(0.333333333333,0.203561143815,0.203561143815,0.333333333333
      ,0.203561143815,0.203561143815,0.333333333333)
    ,(0.333333333333,0.203561143815,0.203561143815,0.333333333333
      ,0.203561143815,0.203561143815,0.333333333333)
    ,(1.,0.610683431446,0.610683431446,1.,0.610683431446,0.610683431446
      ,1.)
    ,(0.333333333333,0.203561143815,0.203561143815,0.333333333333
      ,0.203561143815,0.203561143815,0.333333333333)
    ,(0.333333333333,0.203561143815,0.203561143815,0.333333333333
      ,0.203561143815,0.203561143815,0.333333333333)
    ,(1.,0.610683431446,0.610683431446,1.,0.610683431446,0.610683431446
,1.))) REPRESENTATION_ITEM('') SURFACE() );
#251 = CARTESIAN_POINT('',(-98.36157786453,8.,15.));
#252 = CARTESIAN_POINT('',(-182.7424646855,105.64514316856,15.));
#253 = CARTESIAN_POINT('',(-129.0531210204,223.,15.));
#254 = CARTESIAN_POINT('',(8.326672684689E-14,223.,15.));
#255 = CARTESIAN_POINT('',(129.05312102045,223.,15.));
#256 = CARTESIAN_POINT('',(182.74246468559,105.64514316856,15.));
#257 = CARTESIAN_POINT('',(98.36157786453,8.,15.));
#258 = CARTESIAN_POINT('',(-82.89299828182,21.367305538154,15.));
#259 = CARTESIAN_POINT('',(-154.0039428003,103.65653737671,15.));
#260 = CARTESIAN_POINT('',(-108.7579151459,202.55588564753,15.));
#261 = CARTESIAN_POINT('',(6.938893903907E-14,202.55588564753,15.));
#262 = CARTESIAN_POINT('',(108.75791514595,202.55588564752,15.));
#263 = CARTESIAN_POINT('',(154.00394280032,103.65653737671,15.));
#264 = CARTESIAN_POINT('',(82.892998281823,21.367305538154,15.));
#265 = CARTESIAN_POINT('',(-82.89299828182,21.367305538154,-15.));
#266 = CARTESIAN_POINT('',(-154.0039428003,103.65653737671,-15.));
#267 = CARTESIAN_POINT('',(-108.7579151459,202.55588564753,-15.));
#268 = CARTESIAN_POINT('',(6.938893903907E-14,202.55588564753,-15.));
#269 = CARTESIAN_POINT('',(108.75791514595,202.55588564752,-15.));
#270 = CARTESIAN_POINT('',(154.00394280032,103.65653737671,-15.));
#271 = CARTESIAN_POINT('',(82.892998281823,21.367305538154,-15.));
#272 = CARTESIAN_POINT('',(-98.36157786453,8.,-15.));
#273 = CARTESIAN_POINT('',(-182.7424646855,105.64514316856,-15.));
#274 = CARTESIAN_POINT('',(-129.0531210204,223.,-15.));
#275 = CARTESIAN_POINT('',(8.326672684689E-14,223.,-15.));
#276 = CARTESIAN_POINT('',(129.05312102045,223.,-15.));
#277 = CARTESIAN_POINT('',(182.74246468559,105.64514316856,-15.));
#278 = CARTESIAN_POINT('',(98.36157786453,8.,-15.));
#279 = CARTESIAN_POINT('',(-113.8301574472,-5.367305538154,-15.));
#280 = CARTESIAN_POINT('',(-211.4809865708,107.63374896042,-15.));
#281 = CARTESIAN_POINT('',(-149.3483268949,243.44411435247,-15.));
#282 = CARTESIAN_POINT('',(9.71445146547E-14,243.44411435247,-15.));
#283 = CARTESIAN_POINT('',(149.34832689495,243.44411435247,-15.));
#284 = CARTESIAN_POINT('',(211.48098657086,107.63374896042,-15.));
#285 = CARTESIAN_POINT('',(113.83015744723,-5.367305538154,-15.));
#286 = CARTESIAN_POINT('',(-113.8301574472,-5.367305538154,15.));
#287 = CARTESIAN_POINT('',(-211.4809865708,107.63374896042,15.));
#288 = CARTESIAN_POINT('',(-149.3483268949,243.44411435247,15.));
#289 = CARTESIAN_POINT('',(9.71445146547E-14,243.44411435247,15.));
#290 = CARTESIAN_POINT('',(149.34832689495,243.44411435247,15.));
#291 = CARTESIAN_POINT('',(211.48098657086,107.63374896042,15.));
#292 = CARTESIAN_POINT('',(113.83015744723,-5.367305538154,15.));
#293 = CARTESIAN_POINT('',(-98.36157786453,8.,15.));
#294 = CARTESIAN_POINT('',(-182.7424646855,105.64514316856,15.));
#295 = CARTESIAN_POINT('',(-129.0531210204,223.,15.));
#296 = CARTESIAN_POINT('',(8.326672684689E-14,223.,15.));
#297 = CARTESIAN_POINT('',(129.05312102045,223.,15.));
#298 = CARTESIAN_POINT('',(182.74246468559,105.64514316856,15.));
#299 = CARTESIAN_POINT('',(98.36157786453,8.,15.));
#300 = ADVANCED_FACE('',(#301),#507,.T.);
#301 = FACE_BOUND('',#302,.T.);
#302 = EDGE_LOOP('',(#303,#304,#405,#406));
#303 = ORIENTED_EDGE('',*,*,#138,.F.);
#304 = ORIENTED_EDGE('',*,*,#305,.F.);
#305 = EDGE_CURVE('',#22,#36,#306,.T.);
#306 = B_SPLINE_CURVE_WITH_KNOTS('',7,(#307,#308,#309,#310,#311,#312,
    #313,#314,#315,#316,#317,#318,#319,#320,#321,#322,#323,#324,#325,
    #326,#327,#328,#329,#330,#331,#332,#333,#334,#335,#336,#337,#338,
    #339,#340,#341,#342,#343,#344,#345,#346,#347,#348,#349,#350,#351,
    #352,#353,#354,#355,#356,#357,#358,#359,#360,#361,#362,#363,#364,
    #365,#366,#367,#368,#369,#370,#371,#372,#373,#374,#375,#376,#377,
    #378,#379,#380,#381,#382,#383,#384,#385,#386,#387,#388,#389,#390,
    #391,#392,#393,#394,#395,#396,#397,#398,#399,#400,#401,#402,#403,
    #404),.UNSPECIFIED.,.F.,.F.,(8,6,6,6,6,6,6,6,6,6,6,6,6,6,6,6,8),(0.,
    0.152673466562,0.231833028391,0.285995876946,0.326908945869,
    0.359816288259,0.38753276984,0.410911609547,0.500002817284,
    0.58866730676,0.612049766097,0.639771532436,0.672686475048,
    0.714698893355,0.768826573583,0.847926504581,1.),.UNSPECIFIED.);
#307 = CARTESIAN_POINT('',(-73.83088784512,200.,15.));
#308 = CARTESIAN_POINT('',(-74.92604338544,200.,15.));
#309 = CARTESIAN_POINT('',(-76.02122403358,200.,14.935210758637));
#310 = CARTESIAN_POINT('',(-77.11192878528,200.,14.802892844496));
#311 = CARTESIAN_POINT('',(-78.19266683957,200.,14.600182985807));
#312 = CARTESIAN_POINT('',(-79.25704163617,200.,14.324553333911));
#313 = CARTESIAN_POINT('',(-80.29781545567,200.,13.974163480664));
#314 = CARTESIAN_POINT('',(-81.83029296542,200.,13.327709913308));
#315 = CARTESIAN_POINT('',(-82.34503624933,200.,13.086741872113));
#316 = CARTESIAN_POINT('',(-82.85011020596,200.,12.825481432425));
#317 = CARTESIAN_POINT('',(-83.34432853618,200.,12.543967573147));
#318 = CARTESIAN_POINT('',(-83.82647711854,200.,12.242354195733));
#319 = CARTESIAN_POINT('',(-84.29532547246,200.,11.920929653978));
#320 = CARTESIAN_POINT('',(-85.06048977342,200.,11.346957381978));
#321 = CARTESIAN_POINT('',(-85.36454073076,200.,11.104707575166));
#322 = CARTESIAN_POINT('',(-85.66139569349,200.,10.853528439939));
#323 = CARTESIAN_POINT('',(-85.95066596852,200.,10.593589893991));
#324 = CARTESIAN_POINT('',(-86.23197101923,200.,10.325091759058));
#325 = CARTESIAN_POINT('',(-86.50493991493,200.,10.048265323822));
#326 = CARTESIAN_POINT('',(-86.96883695511,200.,9.548176822224));
#327 = CARTESIAN_POINT('',(-87.16350073473,200.,9.328376143826));
#328 = CARTESIAN_POINT('',(-87.35304923642,200.,9.104086211195));
#329 = CARTESIAN_POINT('',(-87.53733342067,200.,8.87542903237));
#330 = CARTESIAN_POINT('',(-87.71621009108,200.,8.642535283875));
#331 = CARTESIAN_POINT('',(-87.8895418944,200.,8.405544310717));
#332 = CARTESIAN_POINT('',(-88.19204651795,200.,7.970810276396));
#333 = CARTESIAN_POINT('',(-88.32322385498,200.,7.774461056536));
#334 = CARTESIAN_POINT('',(-88.4506611297,200.,7.575633383866));
#335 = CARTESIAN_POINT('',(-88.57429319929,200.,7.374407029386));
#336 = CARTESIAN_POINT('',(-88.69405798002,200.,7.170864618031));
#337 = CARTESIAN_POINT('',(-88.8098964472,200.,6.965091628674));
#338 = CARTESIAN_POINT('',(-89.01596443569,200.,6.58205806641));
#339 = CARTESIAN_POINT('',(-89.10735130257,200.,6.405419819942));
#340 = CARTESIAN_POINT('',(-89.19587985369,200.,6.227314365815));
#341 = CARTESIAN_POINT('',(-89.28151836927,200.,6.04779549346));
#342 = CARTESIAN_POINT('',(-89.36423679191,200.,5.866918070647));
#343 = CARTESIAN_POINT('',(-89.44400672656,200.,5.684738043481));
#344 = CARTESIAN_POINT('',(-89.58557774717,200.,5.346593019603));
#345 = CARTESIAN_POINT('',(-89.64823722829,200.,5.190987296426));
#346 = CARTESIAN_POINT('',(-89.70876385338,200.,5.034529456669));
#347 = CARTESIAN_POINT('',(-89.76714244741,200.,4.877254090822));
#348 = CARTESIAN_POINT('',(-89.82335869086,200.,4.719196190069));
#349 = CARTESIAN_POINT('',(-89.87739911975,200.,4.560391146285));
#350 = CARTESIAN_POINT('',(-90.12684680975,200.,3.792995644462));
#351 = CARTESIAN_POINT('',(-90.29266725015,200.,3.174771107817));
#352 = CARTESIAN_POINT('',(-90.42600290629,200.,2.548206100258));
#353 = CARTESIAN_POINT('',(-90.52634451806,200.,1.915343204061));
#354 = CARTESIAN_POINT('',(-90.59335304817,200.,1.278256987765));
#355 = CARTESIAN_POINT('',(-90.62685263655,200.,0.639052072964));
#356 = CARTESIAN_POINT('',(-90.62684052586,200.,-0.636260760284));
#357 = CARTESIAN_POINT('',(-90.59364902071,200.,-1.272403127366));
#358 = CARTESIAN_POINT('',(-90.52726890052,200.,-1.906456587671));
#359 = CARTESIAN_POINT('',(-90.42787266687,200.,-2.536346583924));
#360 = CARTESIAN_POINT('',(-90.29579295883,200.,-3.160027906137));
#361 = CARTESIAN_POINT('',(-90.13152941093,200.,-3.775486558357));
#362 = CARTESIAN_POINT('',(-89.8841546001,200.,-4.540363048667));
#363 = CARTESIAN_POINT('',(-89.83034108184,200.,-4.699272553722));
#364 = CARTESIAN_POINT('',(-89.77434988189,200.,-4.857437877139));
#365 = CARTESIAN_POINT('',(-89.71619440893,200.,-5.014823584166));
#366 = CARTESIAN_POINT('',(-89.65588892767,200.,-5.171394638746));
#367 = CARTESIAN_POINT('',(-89.5934485589,200.,-5.327116403511));
#368 = CARTESIAN_POINT('',(-89.45234911598,200.,-5.665527691026));
#369 = CARTESIAN_POINT('',(-89.37283058797,200.,-5.847858977603));
#370 = CARTESIAN_POINT('',(-89.29036034123,200.,-6.028891387381));
#371 = CARTESIAN_POINT('',(-89.20496668614,200.,-6.208568882545));
#372 = CARTESIAN_POINT('',(-89.11667959767,200.,-6.3868364996));
#373 = CARTESIAN_POINT('',(-89.02553071534,200.,-6.563640349372));
#374 = CARTESIAN_POINT('',(-88.81997099418,200.,-6.947051813864));
#375 = CARTESIAN_POINT('',(-88.70440103275,200.,-7.153038297119));
#376 = CARTESIAN_POINT('',(-88.58489930031,200.,-7.356798548936));
#377 = CARTESIAN_POINT('',(-88.4615247049,200.,-7.558246898602));
#378 = CARTESIAN_POINT('',(-88.33433922128,200.,-7.757300522532));
#379 = CARTESIAN_POINT('',(-88.20340789086,200.,-7.953879444261));
#380 = CARTESIAN_POINT('',(-87.89698468299,200.,-8.395561448266));
#381 = CARTESIAN_POINT('',(-87.71917816625,200.,-8.6390597934));
#382 = CARTESIAN_POINT('',(-87.53552142603,200.,-8.878240924907));
#383 = CARTESIAN_POINT('',(-87.3461631059,200.,-9.112953841932));
#384 = CARTESIAN_POINT('',(-87.15125833851,200.,-9.343057187703));
#385 = CARTESIAN_POINT('',(-86.95096874562,200.,-9.568419249533));
#386 = CARTESIAN_POINT('',(-86.48069358758,200.,-10.07300262016));
#387 = CARTESIAN_POINT('',(-86.20726288769,200.,-10.34901707719));
#388 = CARTESIAN_POINT('',(-85.92553023927,200.,-10.6166990359));
#389 = CARTESIAN_POINT('',(-85.63586643711,200.,-10.87581919289));
#390 = CARTESIAN_POINT('',(-85.33865171589,200.,-11.1261796598));
#391 = CARTESIAN_POINT('',(-85.03427429629,200.,-11.36761238767));
#392 = CARTESIAN_POINT('',(-84.2684340904,200.,-11.93954639411));
#393 = CARTESIAN_POINT('',(-83.79927648953,200.,-12.25975751917));
#394 = CARTESIAN_POINT('',(-83.31688901656,200.,-12.56017443256));
#395 = CARTESIAN_POINT('',(-82.82249911393,200.,-12.84051384593));
#396 = CARTESIAN_POINT('',(-82.31731737763,200.,-13.10062620204));
#397 = CARTESIAN_POINT('',(-81.80252615639,200.,-13.34047616029));
#398 = CARTESIAN_POINT('',(-80.27327898172,200.,-13.98240505849));
#399 = CARTESIAN_POINT('',(-79.23613178704,200.,-14.32995633498));
#400 = CARTESIAN_POINT('',(-78.17568284917,200.,-14.60336185938));
#401 = CARTESIAN_POINT('',(-77.09907451029,200.,-14.80444896533));
#402 = CARTESIAN_POINT('',(-76.01262039919,200.,-14.93571867212));
#403 = CARTESIAN_POINT('',(-74.92174223247,200.,-15.00000000001));
#404 = CARTESIAN_POINT('',(-73.83088784484,200.,-15.));
#405 = ORIENTED_EDGE('',*,*,#21,.T.);
#406 = ORIENTED_EDGE('',*,*,#407,.T.);
#407 = EDGE_CURVE('',#24,#139,#408,.T.);
#408 = B_SPLINE_CURVE_WITH_KNOTS('',7,(#409,#410,#411,#412,#413,#414,
    #415,#416,#417,#418,#419,#420,#421,#422,#423,#424,#425,#426,#427,
    #428,#429,#430,#431,#432,#433,#434,#435,#436,#437,#438,#439,#440,
    #441,#442,#443,#444,#445,#446,#447,#448,#449,#450,#451,#452,#453,
    #454,#455,#456,#457,#458,#459,#460,#461,#462,#463,#464,#465,#466,
    #467,#468,#469,#470,#471,#472,#473,#474,#475,#476,#477,#478,#479,
    #480,#481,#482,#483,#484,#485,#486,#487,#488,#489,#490,#491,#492,
    #493,#494,#495,#496,#497,#498,#499,#500,#501,#502,#503,#504,#505,
    #506),.UNSPECIFIED.,.F.,.F.,(8,6,6,6,6,6,6,6,6,6,6,6,6,6,6,6,8),(0.,
    0.152673466562,0.231833028392,0.285995876946,0.326908945869,
    0.359816288259,0.387532769841,0.410911609547,0.500002817284,
    0.58866730676,0.612049766098,0.639771532436,0.672686475048,
    0.714698893355,0.768826573583,0.847926504581,1.),.UNSPECIFIED.);
#409 = CARTESIAN_POINT('',(73.830887845129,200.,15.));
#410 = CARTESIAN_POINT('',(74.926043385445,200.,15.));
#411 = CARTESIAN_POINT('',(76.021224033587,200.,14.935210758638));
#412 = CARTESIAN_POINT('',(77.111928785278,200.,14.802892844494));
#413 = CARTESIAN_POINT('',(78.192666839575,200.,14.600182985808));
#414 = CARTESIAN_POINT('',(79.257041636172,200.,14.324553333911));
#415 = CARTESIAN_POINT('',(80.297815455676,200.,13.974163480664));
#416 = CARTESIAN_POINT('',(81.830292965425,200.,13.327709913308));
#417 = CARTESIAN_POINT('',(82.345036249335,200.,13.086741872113));
#418 = CARTESIAN_POINT('',(82.85011020596,200.,12.825481432425));
#419 = CARTESIAN_POINT('',(83.34432853619,200.,12.543967573147));
#420 = CARTESIAN_POINT('',(83.82647711854,200.,12.242354195733));
#421 = CARTESIAN_POINT('',(84.295325472464,200.,11.920929653978));
#422 = CARTESIAN_POINT('',(85.060489773423,200.,11.346957381978));
#423 = CARTESIAN_POINT('',(85.364540730763,200.,11.104707575166));
#424 = CARTESIAN_POINT('',(85.661395693495,200.,10.853528439939));
#425 = CARTESIAN_POINT('',(85.95066596852,200.,10.593589893991));
#426 = CARTESIAN_POINT('',(86.231971019233,200.,10.325091759058));
#427 = CARTESIAN_POINT('',(86.504939914933,200.,10.048265323822));
#428 = CARTESIAN_POINT('',(86.968836955118,200.,9.548176822224));
#429 = CARTESIAN_POINT('',(87.163500734733,200.,9.328376143826));
#430 = CARTESIAN_POINT('',(87.353049236424,200.,9.104086211195));
#431 = CARTESIAN_POINT('',(87.537333420671,200.,8.87542903237));
#432 = CARTESIAN_POINT('',(87.716210091083,200.,8.642535283875));
#433 = CARTESIAN_POINT('',(87.8895418944,200.,8.405544310717));
#434 = CARTESIAN_POINT('',(88.192046517955,200.,7.970810276396));
#435 = CARTESIAN_POINT('',(88.323223854983,200.,7.774461056536));
#436 = CARTESIAN_POINT('',(88.4506611297,200.,7.575633383866));
#437 = CARTESIAN_POINT('',(88.574293199294,200.,7.374407029386));
#438 = CARTESIAN_POINT('',(88.694057980023,200.,7.170864618031));
#439 = CARTESIAN_POINT('',(88.809896447206,200.,6.965091628674));
#440 = CARTESIAN_POINT('',(89.0159644357,200.,6.58205806641));
#441 = CARTESIAN_POINT('',(89.107351302571,200.,6.405419819942));
#442 = CARTESIAN_POINT('',(89.19587985369,200.,6.227314365815));
#443 = CARTESIAN_POINT('',(89.281518369275,200.,6.04779549346));
#444 = CARTESIAN_POINT('',(89.364236791913,200.,5.866918070647));
#445 = CARTESIAN_POINT('',(89.444006726567,200.,5.684738043481));
#446 = CARTESIAN_POINT('',(89.585577747174,200.,5.346593019603));
#447 = CARTESIAN_POINT('',(89.648237228298,200.,5.190987296425));
#448 = CARTESIAN_POINT('',(89.708763853388,200.,5.034529456668));
#449 = CARTESIAN_POINT('',(89.767142447414,200.,4.877254090822));
#450 = CARTESIAN_POINT('',(89.823358690866,200.,4.719196190069));
#451 = CARTESIAN_POINT('',(89.877399119757,200.,4.560391146285));
#452 = CARTESIAN_POINT('',(90.126846809752,200.,3.792995644462));
#453 = CARTESIAN_POINT('',(90.292667250153,200.,3.174771107818));
#454 = CARTESIAN_POINT('',(90.426002906293,200.,2.548206100257));
#455 = CARTESIAN_POINT('',(90.526344518062,200.,1.915343204061));
#456 = CARTESIAN_POINT('',(90.593353048175,200.,1.278256987766));
#457 = CARTESIAN_POINT('',(90.626852636553,200.,0.639052072964));
#458 = CARTESIAN_POINT('',(90.626840525865,200.,-0.636260760281));
#459 = CARTESIAN_POINT('',(90.593649020711,200.,-1.272403127363));
#460 = CARTESIAN_POINT('',(90.527268900524,200.,-1.906456587662));
#461 = CARTESIAN_POINT('',(90.427872666879,200.,-2.536346583912));
#462 = CARTESIAN_POINT('',(90.295792958835,200.,-3.160027906126));
#463 = CARTESIAN_POINT('',(90.131529410942,200.,-3.77548655834));
#464 = CARTESIAN_POINT('',(89.884154600115,200.,-4.54036304865));
#465 = CARTESIAN_POINT('',(89.830341081853,200.,-4.699272553704));
#466 = CARTESIAN_POINT('',(89.774349881905,200.,-4.857437877121));
#467 = CARTESIAN_POINT('',(89.71619440894,200.,-5.014823584149));
#468 = CARTESIAN_POINT('',(89.655888927683,200.,-5.171394638729));
#469 = CARTESIAN_POINT('',(89.593448558912,200.,-5.327116403494));
#470 = CARTESIAN_POINT('',(89.452349115992,200.,-5.665527691009));
#471 = CARTESIAN_POINT('',(89.372830587983,200.,-5.847858977586));
#472 = CARTESIAN_POINT('',(89.290360341242,200.,-6.028891387364));
#473 = CARTESIAN_POINT('',(89.204966686154,200.,-6.208568882528));
#474 = CARTESIAN_POINT('',(89.116679597678,200.,-6.386836499584));
#475 = CARTESIAN_POINT('',(89.025530715348,200.,-6.563640349356));
#476 = CARTESIAN_POINT('',(88.819970994197,200.,-6.947051813848));
#477 = CARTESIAN_POINT('',(88.704401032762,200.,-7.153038297104));
#478 = CARTESIAN_POINT('',(88.58489930032,200.,-7.35679854892));
#479 = CARTESIAN_POINT('',(88.461524704918,200.,-7.558246898587));
#480 = CARTESIAN_POINT('',(88.334339221294,200.,-7.757300522517));
#481 = CARTESIAN_POINT('',(88.203407890878,200.,-7.953879444246));
#482 = CARTESIAN_POINT('',(87.896984683007,200.,-8.395561448252));
#483 = CARTESIAN_POINT('',(87.719178166264,200.,-8.639059793386));
#484 = CARTESIAN_POINT('',(87.535521426044,200.,-8.878240924893));
#485 = CARTESIAN_POINT('',(87.346163105914,200.,-9.112953841919));
#486 = CARTESIAN_POINT('',(87.151258338529,200.,-9.34305718769));
#487 = CARTESIAN_POINT('',(86.950968745635,200.,-9.56841924952));
#488 = CARTESIAN_POINT('',(86.480693587592,200.,-10.07300262015));
#489 = CARTESIAN_POINT('',(86.207262887702,200.,-10.34901707718));
#490 = CARTESIAN_POINT('',(85.925530239286,200.,-10.61669903589));
#491 = CARTESIAN_POINT('',(85.635866437122,200.,-10.87581919288));
#492 = CARTESIAN_POINT('',(85.338651715912,200.,-11.12617965979));
#493 = CARTESIAN_POINT('',(85.034274296308,200.,-11.36761238766));
#494 = CARTESIAN_POINT('',(84.268434090414,200.,-11.9395463941));
#495 = CARTESIAN_POINT('',(83.799276489551,200.,-12.25975751916));
#496 = CARTESIAN_POINT('',(83.316889016577,200.,-12.56017443256));
#497 = CARTESIAN_POINT('',(82.822499113951,200.,-12.84051384592));
#498 = CARTESIAN_POINT('',(82.317317377643,200.,-13.10062620203));
#499 = CARTESIAN_POINT('',(81.802526156411,200.,-13.34047616028));
#500 = CARTESIAN_POINT('',(80.273278981733,200.,-13.98240505849));
#501 = CARTESIAN_POINT('',(79.236131787059,200.,-14.32995633498));
#502 = CARTESIAN_POINT('',(78.175682849174,200.,-14.60336185938));
#503 = CARTESIAN_POINT('',(77.099074510308,200.,-14.80444896533));
#504 = CARTESIAN_POINT('',(76.012620399199,200.,-14.93571867212));
#505 = CARTESIAN_POINT('',(74.921742232482,200.,-15.00000000001));
#506 = CARTESIAN_POINT('',(73.830887844847,200.,-15.));
#507 = ( BOUNDED_SURFACE() B_SPLINE_SURFACE(3,3,(
    (#508,#509,#510,#511,#512,#513,#514)
    ,(#515,#516,#517,#518,#519,#520,#521)
    ,(#522,#523,#524,#525,#526,#527,#528)
    ,(#529,#530,#531,#532,#533,#534,#535)
    ,(#536,#537,#538,#539,#540,#541,#542)
    ,(#543,#544,#545,#546,#547,#548,#549)
    ,(#550,#551,#552,#553,#554,#555,#556
)),.UNSPECIFIED.,.T.,.F.,.F.) B_SPLINE_SURFACE_WITH_KNOTS((1,3,3,3,1),(4
    ,3,4),(-0.5,0.,0.5,1.,1.5),(0.,0.5,1.),.UNSPECIFIED.) 
GEOMETRIC_REPRESENTATION_ITEM() RATIONAL_B_SPLINE_SURFACE((
    (1.,0.610683431446,0.610683431446,1.,0.610683431446,0.610683431446
      ,1.)
    ,(0.333333333333,0.203561143815,0.203561143815,0.333333333333
      ,0.203561143815,0.203561143815,0.333333333333)
    ,(0.333333333333,0.203561143815,0.203561143815,0.333333333333
      ,0.203561143815,0.203561143815,0.333333333333)
    ,(1.,0.610683431446,0.610683431446,1.,0.610683431446,0.610683431446
      ,1.)
    ,(0.333333333333,0.203561143815,0.203561143815,0.333333333333
      ,0.203561143815,0.203561143815,0.333333333333)
    ,(0.333333333333,0.203561143815,0.203561143815,0.333333333333
      ,0.203561143815,0.203561143815,0.333333333333)
    ,(1.,0.610683431446,0.610683431446,1.,0.610683431446,0.610683431446
,1.))) REPRESENTATION_ITEM('') SURFACE() );
#508 = CARTESIAN_POINT('',(-98.36157786453,8.,15.));
#509 = CARTESIAN_POINT('',(-182.7424646855,105.64514316856,15.));
#510 = CARTESIAN_POINT('',(-129.0531210204,223.,15.));
#511 = CARTESIAN_POINT('',(8.326672684689E-14,223.,15.));
#512 = CARTESIAN_POINT('',(129.05312102045,223.,15.));
#513 = CARTESIAN_POINT('',(182.74246468559,105.64514316856,15.));
#514 = CARTESIAN_POINT('',(98.36157786453,8.,15.));
#515 = CARTESIAN_POINT('',(-82.89299828182,21.367305538154,15.));
#516 = CARTESIAN_POINT('',(-154.0039428003,103.65653737671,15.));
#517 = CARTESIAN_POINT('',(-108.7579151459,202.55588564753,15.));
#518 = CARTESIAN_POINT('',(6.938893903907E-14,202.55588564753,15.));
#519 = CARTESIAN_POINT('',(108.75791514595,202.55588564752,15.));
#520 = CARTESIAN_POINT('',(154.00394280032,103.65653737671,15.));
#521 = CARTESIAN_POINT('',(82.892998281823,21.367305538154,15.));
#522 = CARTESIAN_POINT('',(-82.89299828182,21.367305538154,-15.));
#523 = CARTESIAN_POINT('',(-154.0039428003,103.65653737671,-15.));
#524 = CARTESIAN_POINT('',(-108.7579151459,202.55588564753,-15.));
#525 = CARTESIAN_POINT('',(6.938893903907E-14,202.55588564753,-15.));
#526 = CARTESIAN_POINT('',(108.75791514595,202.55588564752,-15.));
#527 = CARTESIAN_POINT('',(154.00394280032,103.65653737671,-15.));
#528 = CARTESIAN_POINT('',(82.892998281823,21.367305538154,-15.));
#529 = CARTESIAN_POINT('',(-98.36157786453,8.,-15.));
#530 = CARTESIAN_POINT('',(-182.7424646855,105.64514316856,-15.));
#531 = CARTESIAN_POINT('',(-129.0531210204,223.,-15.));
#532 = CARTESIAN_POINT('',(8.326672684689E-14,223.,-15.));
#533 = CARTESIAN_POINT('',(129.05312102045,223.,-15.));
#534 = CARTESIAN_POINT('',(182.74246468559,105.64514316856,-15.));
#535 = CARTESIAN_POINT('',(98.36157786453,8.,-15.));
#536 = CARTESIAN_POINT('',(-113.8301574472,-5.367305538154,-15.));
#537 = CARTESIAN_POINT('',(-211.4809865708,107.63374896042,-15.));
#538 = CARTESIAN_POINT('',(-149.3483268949,243.44411435247,-15.));
#539 = CARTESIAN_POINT('',(9.71445146547E-14,243.44411435247,-15.));
#540 = CARTESIAN_POINT('',(149.34832689495,243.44411435247,-15.));
#541 = CARTESIAN_POINT('',(211.48098657086,107.63374896042,-15.));
#542 = CARTESIAN_POINT('',(113.83015744723,-5.367305538154,-15.));
#543 = CARTESIAN_POINT('',(-113.8301574472,-5.367305538154,15.));
#544 = CARTESIAN_POINT('',(-211.4809865708,107.63374896042,15.));
#545 = CARTESIAN_POINT('',(-149.3483268949,243.44411435247,15.));
#546 = CARTESIAN_POINT('',(9.71445146547E-14,243.44411435247,15.));
#547 = CARTESIAN_POINT('',(149.34832689495,243.44411435247,15.));
#548 = CARTESIAN_POINT('',(211.48098657086,107.63374896042,15.));
#549 = CARTESIAN_POINT('',(113.83015744723,-5.367305538154,15.));
#550 = CARTESIAN_POINT('',(-98.36157786453,8.,15.));
#551 = CARTESIAN_POINT('',(-182.7424646855,105.64514316856,15.));
#552 = CARTESIAN_POINT('',(-129.0531210204,223.,15.));
#553 = CARTESIAN_POINT('',(8.326672684689E-14,223.,15.));
#554 = CARTESIAN_POINT('',(129.05312102045,223.,15.));
#555 = CARTESIAN_POINT('',(182.74246468559,105.64514316856,15.));
#556 = CARTESIAN_POINT('',(98.36157786453,8.,15.));
#557 = ADVANCED_FACE('',(#558),#562,.F.);
#558 = FACE_BOUND('',#559,.F.);
#559 = EDGE_LOOP('',(#560,#561));
#560 = ORIENTED_EDGE('',*,*,#407,.T.);
#561 = ORIENTED_EDGE('',*,*,#150,.T.);
#562 = PLANE('',#563);
#563 = AXIS2_PLACEMENT_3D('',#564,#565,#566);
#564 = CARTESIAN_POINT('',(-100.,200.,-25.));
#565 = DIRECTION('',(0.,1.,0.));
#566 = DIRECTION('',(0.,0.,1.));
#567 = ADVANCED_FACE('',(#568),#572,.F.);
#568 = FACE_BOUND('',#569,.F.);
#569 = EDGE_LOOP('',(#570,#571));
#570 = ORIENTED_EDGE('',*,*,#35,.F.);
#571 = ORIENTED_EDGE('',*,*,#305,.F.);
#572 = PLANE('',#573);
#573 = AXIS2_PLACEMENT_3D('',#574,#575,#576);
#574 = CARTESIAN_POINT('',(-100.,200.,-25.));
#575 = DIRECTION('',(0.,1.,0.));
#576 = DIRECTION('',(0.,0.,1.));
#577 = ( GEOMETRIC_REPRESENTATION_CONTEXT(3) 
GLOBAL_UNCERTAINTY_ASSIGNED_CONTEXT((#581)) GLOBAL_UNIT_ASSIGNED_CONTEXT
((#578,#579,#580)) REPRESENTATION_CONTEXT('Context #1',
  '3D Context with UNIT and UNCERTAINTY') );
#578 = ( LENGTH_UNIT() NAMED_UNIT(*) SI_UNIT(.MILLI.,.METRE.) );
#579 = ( NAMED_UNIT(*) PLANE_ANGLE_UNIT() SI_UNIT($,.RADIAN.) );
#580 = ( NAMED_UNIT(*) SI_UNIT($,.STERADIAN.) SOLID_ANGLE_UNIT() );
#581 = UNCERTAINTY_MEASURE_WITH_UNIT(LENGTH_MEASURE(5.E-06),#578,
  'distance_accuracy_value','confusion accuracy');
#582 = PRODUCT_RELATED_PRODUCT_CATEGORY('part',$,(#7));
#583 = MECHANICAL_DESIGN_GEOMETRIC_PRESENTATION_REPRESENTATION('',(#584)
  ,#577);
#584 = STYLED_ITEM('color',(#585),#15);
#585 = PRESENTATION_STYLE_ASSIGNMENT((#586,#592));
#586 = SURFACE_STYLE_USAGE(.BOTH.,#587);
#587 = SURFACE_SIDE_STYLE('',(#588));
#588 = SURFACE_STYLE_FILL_AREA(#589);
#589 = FILL_AREA_STYLE('',(#590));
#590 = FILL_AREA_STYLE_COLOUR('',#591);
#591 = COLOUR_RGB('',0.25098037884,0.25098037884,0.25098037884);
#592 = CURVE_STYLE('',#593,POSITIVE_LENGTH_MEASURE(0.1),#594);
#593 = DRAUGHTING_PRE_DEFINED_CURVE_FONT('continuous');
#594 = COLOUR_RGB('',9.803921802644E-02,9.803921802644E-02,
  9.803921802644E-02);
ENDSEC;
END-ISO-10303-21;
